<?xml version="1.0" encoding="UTF-8"?>
<svg id="Layer_1" xmlns="http://www.w3.org/2000/svg" xmlns:xlink="http://www.w3.org/1999/xlink" version="1.1" viewBox="0 0 2060 403.3">
  <!-- Generator: Adobe Illustrator 30.3.0, SVG Export Plug-In . SVG Version: 2.1.3 Build 182)  -->
  <defs>
    <style>
      .st0 {
        fill: none;
      }

      .st1 {
        fill: #fbbd1c;
      }

      .st2 {
        fill: #fcc216;
      }

      .st3 {
        fill: #fec90e;
      }

      .st4 {
        fill: #fecb10;
      }

      .st5 {
        fill: #ffd117;
      }

      .st6 {
        fill: #feca0f;
      }

      .st7 {
        fill: #ffcd12;
      }

      .st8 {
        fill: #ffd218;
      }

      .st9 {
        fill: #ffcc10;
      }

      .st10 {
        fill: #ffd51b;
      }

      .st11 {
        fill: #fdc60e;
      }

      .st12 {
        fill: url(#Orange_Yellow);
      }

      .st13 {
        fill: #fcbf19;
      }

      .st14 {
        fill: url(#Orange_Yellow1);
      }

      .st15 {
        fill: #ffd015;
      }

      .st16 {
        fill: #fec80e;
      }

      .st17 {
        fill: #ffce13;
      }

      .st18 {
        fill: #fcbf1a;
      }

      .st19 {
        clip-path: url(#clippath-1);
      }

      .st20 {
        clip-path: url(#clippath-3);
      }

      .st21 {
        clip-path: url(#clippath-4);
      }

      .st22 {
        clip-path: url(#clippath-2);
      }

      .st23 {
        fill: #fdc314;
      }

      .st24 {
        fill: #fec70d;
      }

      .st25 {
        fill: #fdc411;
      }

      .st26 {
        fill: #64c8d3;
      }

      .st27 {
        fill: #fcc018;
      }

      .st28 {
        fill: #ffd319;
      }

      .st29 {
        fill: #ffd41a;
      }

      .st30 {
        fill: #ffcf14;
      }

      .st31 {
        fill: #fcc117;
      }

      .st32 {
        fill: #fdc70c;
      }

      .st33 {
        fill: #fec80d;
      }

      .st34 {
        fill: #fcbe1b;
      }

      .st35 {
        fill: #fcc215;
      }

      .st36 {
        fill: #fc1;
      }

      .st37 {
        fill: #fdc412;
      }

      .st38 {
        clip-path: url(#clippath);
      }

      .st39 {
        fill: #ffd116;
      }

      .st40 {
        fill: #fdc50f;
      }
    </style>
    <linearGradient id="Orange_Yellow" data-name="Orange, Yellow" x1="1064.9" y1="8.7" x2="1064.9" y2="278.3" gradientUnits="userSpaceOnUse">
      <stop offset="0" stop-color="#fff33b"/>
      <stop offset="0" stop-color="#fee62d"/>
      <stop offset=".1" stop-color="#fdd51b"/>
      <stop offset=".2" stop-color="#fdca0f"/>
      <stop offset=".3" stop-color="#fdc70c"/>
      <stop offset=".7" stop-color="#f3903f"/>
      <stop offset=".9" stop-color="#ed683c"/>
      <stop offset="1" stop-color="#e93e3a"/>
    </linearGradient>
    <clipPath id="clippath">
      <path class="st0" d="M1065.5,64c.6-.3,1-.4,1-.4-.3.1-.7.3-1,.4Z"/>
    </clipPath>
    <clipPath id="clippath-1">
      <path class="st0" d="M1066.5,64c-.3-.1-.7-.3-1-.4,0,0,.4.1,1,.4Z"/>
    </clipPath>
    <clipPath id="clippath-2">
      <path class="st0" d="M1065.5,64c-.6-.3-1-.4-1-.4.3.1.7.3,1,.4Z"/>
    </clipPath>
    <clipPath id="clippath-3">
      <path class="st0" d="M1064.5,64c.3-.1.7-.3,1-.4,0,0-.4.1-1,.4Z"/>
    </clipPath>
    <clipPath id="clippath-4">
      <circle class="st0" cx="1065" cy="84.9" r="43.5"/>
    </clipPath>
    <linearGradient id="Orange_Yellow1" data-name="Orange, Yellow" x1="1065.5" y1="8.7" x2="1065.5" y2="278.3" xlink:href="#Orange_Yellow"/>
  </defs>
  <g>
    <path d="M41.1,258.8v-10.4h36.4v10.7c0,9.2,4.5,13.6,12.1,13.6s11.7-5.5,11.7-13.2v-91.2h39.4v92.5c0,12.6-2.8,21.9-9.2,29.4-8.1,9.4-22.2,15.3-40.1,15.3-35.6,0-50.1-21.7-50.1-46.7Z"/>
    <path d="M150.6,236.1c0-40.3,26.4-70.3,68.2-70.3s68.6,30,68.6,70.3-26.8,70.1-68.6,70.1-68.2-29.8-68.2-70.1ZM247.5,236.1c0-22-9.6-38.8-28.5-38.8s-28.5,16.8-28.5,38.8,9.6,38.6,28.5,38.6,28.5-16.6,28.5-38.6Z"/>
    <path d="M323.8,255.7l-46.2-87.4h42.8l14.3,30c4.9,10.2,9,21.7,9,21.7h.4s4.3-11.5,9.2-21.7l14.3-30h41.8l-46.4,87.4v47.3h-39.4v-47.3Z"/>
    <path d="M431.2,168.3h106.7v14.9h-44.9v119.9h-17v-119.9h-44.9v-14.9Z"/>
    <path d="M554.6,168.3h17v57.3h72v-57.3h17v134.7h-17v-63.7h-72v63.7h-17v-134.7Z"/>
    <path d="M685.8,168.3h62.9c23.7,0,39.8,14.9,39.8,36.9s-7.2,28.1-23.4,33.4v.6c13.8,4.9,18.1,14.3,19.4,34.3,1.5,21.7,3.8,27.1,6.2,28.8v.8h-18.3c-2.8-2.5-3.4-7.5-4.9-30.2-1.3-19.8-9.2-26.8-27.3-26.8h-37.5v56.9h-17v-134.7ZM702.8,232.4h40c18.8,0,28.3-9.4,28.3-24.7s-7.5-24.7-27.3-24.7h-40.9v49.4Z"/>
    <path d="M808.7,259.5v-91.2h17v89.5c0,23,13,32.8,35.2,32.8s34.1-9.8,34.1-32.8v-89.5h17v91.2c0,32.6-22.8,45.6-51.6,45.6s-51.6-13-51.6-45.6Z"/>
  </g>
  <g>
    <path d="M1221.5,168.3h103.8v33.2h-64.4v22h53.3v30.5h-53.3v49h-39.4v-134.7Z"/>
    <path d="M1336.5,168.3h39.4v134.7h-39.4v-134.7Z"/>
    <path d="M1386.8,168.3h116.1v33.5h-38.6v101.2h-39.4v-101.2h-38.1v-33.5Z"/>
    <path d="M1513.8,168.3h39.4l44.1,75.8h.4v-75.8h38.1v134.7h-40.7l-42.8-76.3h-.4v76.3h-38.1v-134.7Z"/>
    <path d="M1651.9,168.3h105v32h-65.6v18.3h54.8v29.6h-54.8v21.1h67.5v33.7h-106.8v-134.7Z"/>
    <path d="M1765,260.1h40.3c1.3,10.7,9.6,15.8,22.6,15.8s17.1-3,17.1-11.1-9-10.2-25.6-14.3c-22.6-5.7-49.9-13.4-49.9-42s25.3-42.6,55.6-42.6,53.5,11.7,54.1,41.1h-39c-1.1-7.3-6.4-12.1-17.1-12.1s-14.7,4-14.7,9.4c0,7.9,11.5,9,31.7,13.9,22.6,5.5,45.2,14.3,45.2,43s-26.2,45-58,45-61.6-15.1-62.2-46.2Z"/>
    <path d="M1890.9,260.1h40.3c1.3,10.7,9.6,15.8,22.6,15.8s17.1-3,17.1-11.1-9-10.2-25.6-14.3c-22.6-5.7-49.9-13.4-49.9-42s25.3-42.6,55.6-42.6,53.5,11.7,54.1,41.1h-39c-1.1-7.3-6.4-12.1-17.1-12.1s-14.7,4-14.7,9.4c0,7.9,11.5,9,31.7,13.9,22.6,5.5,45.2,14.3,45.2,43s-26.2,45-58,45-61.6-15.1-62.2-46.2Z"/>
  </g>
  <g>
    <path class="st12" d="M1094.5,149l-29.5,87.3-29.7-87.6c7.3,2.2,15.6,3.6,24.7,3.6h11c8.6,0,16.5-1.3,23.5-3.3Z"/>
    <g class="st38">
      <rect class="st26" x="1065.5" y="63.6" width="1" height=".4"/>
    </g>
    <g class="st19">
      <rect class="st26" x="1065.5" y="63.6" width="1" height=".4"/>
    </g>
    <g class="st22">
      <rect class="st26" x="1064.5" y="63.6" width="1" height=".4"/>
    </g>
    <g class="st20">
      <rect class="st26" x="1064.5" y="63.6" width="1" height=".4"/>
    </g>
    <g class="st21">
      <polygon class="st10" points="1108.5 42.3 1066.9 41.4 1108.5 41.4 1108.5 42.3"/>
      <polygon class="st29" points="1108.5 44.1 1021.5 42.3 1021.5 41.4 1066.9 41.4 1108.5 42.3 1108.5 44.1"/>
      <polygon class="st28" points="1108.5 46 1021.5 44.2 1021.5 42.3 1108.5 44.1 1108.5 46"/>
      <polygon class="st8" points="1108.5 47.9 1021.5 46 1021.5 44.2 1108.5 46 1108.5 47.9"/>
      <polygon class="st5" points="1108.5 49.7 1021.5 47.9 1021.5 46 1108.5 47.9 1108.5 49.7"/>
      <polygon class="st39" points="1108.5 51.6 1021.5 49.8 1021.5 47.9 1108.5 49.7 1108.5 51.6"/>
      <polygon class="st15" points="1108.5 53.5 1021.5 51.6 1021.5 49.8 1108.5 51.6 1108.5 53.5"/>
      <polygon class="st30" points="1108.5 55.3 1021.5 53.5 1021.5 51.6 1108.5 53.5 1108.5 55.3"/>
      <polygon class="st30" points="1108.5 57.2 1021.5 55.4 1021.5 53.5 1108.5 55.3 1108.5 57.2"/>
      <polygon class="st17" points="1108.5 59.1 1021.5 57.2 1021.5 55.4 1108.5 57.2 1108.5 59.1"/>
      <polygon class="st7" points="1108.5 60.9 1021.5 59.1 1021.5 57.2 1108.5 59.1 1108.5 60.9"/>
      <polygon class="st7" points="1108.5 62.8 1021.5 61 1021.5 59.1 1108.5 60.9 1108.5 62.8"/>
      <polygon class="st36" points="1108.5 64.7 1021.5 62.8 1021.5 61 1108.5 62.8 1108.5 64.7"/>
      <polygon class="st9" points="1108.5 66.5 1021.5 64.7 1021.5 62.8 1108.5 64.7 1108.5 66.5"/>
      <polygon class="st4" points="1108.5 68.4 1021.5 66.5 1021.5 64.7 1108.5 66.5 1108.5 68.4"/>
      <polygon class="st4" points="1108.5 70.2 1021.5 68.4 1021.5 66.5 1108.5 68.4 1108.5 70.2"/>
      <polygon class="st6" points="1108.5 72.1 1021.5 70.3 1021.5 68.4 1108.5 70.2 1108.5 72.1"/>
      <polygon class="st6" points="1108.5 74 1021.5 72.1 1021.5 70.3 1108.5 72.1 1108.5 74"/>
      <polygon class="st3" points="1108.5 75.8 1021.5 74 1021.5 72.1 1108.5 74 1108.5 75.8"/>
      <polygon class="st3" points="1108.5 77.7 1021.5 75.9 1021.5 74 1108.5 75.8 1108.5 77.7"/>
      <polygon class="st3" points="1108.5 79.6 1021.5 77.7 1021.5 75.9 1108.5 77.7 1108.5 79.6"/>
      <polygon class="st16" points="1108.5 81.4 1021.5 79.6 1021.5 77.7 1108.5 79.6 1108.5 81.4"/>
      <polygon class="st33" points="1108.5 83.3 1021.5 81.5 1021.5 79.6 1108.5 81.4 1108.5 83.3"/>
      <polygon class="st33" points="1108.5 85.2 1021.5 83.3 1021.5 81.5 1108.5 83.3 1108.5 85.2"/>
      <polygon class="st33" points="1108.5 87 1021.5 85.2 1021.5 83.3 1108.5 85.2 1108.5 87"/>
      <polygon class="st24" points="1108.5 88.9 1021.5 87.1 1021.5 85.2 1108.5 87 1108.5 88.9"/>
      <polygon class="st24" points="1108.5 90.8 1021.5 88.9 1021.5 87.1 1108.5 88.9 1108.5 90.8"/>
      <polygon class="st32" points="1108.5 92.6 1021.5 90.8 1021.5 88.9 1108.5 90.8 1108.5 92.6"/>
      <polygon class="st32" points="1108.5 94.5 1021.5 92.7 1021.5 90.8 1108.5 92.6 1108.5 94.5"/>
      <polygon class="st32" points="1108.5 96.4 1021.5 94.5 1021.5 92.7 1108.5 94.5 1108.5 96.4"/>
      <polygon class="st32" points="1108.5 98.2 1021.5 96.4 1021.5 94.5 1108.5 96.4 1108.5 98.2"/>
      <polygon class="st32" points="1108.5 100.1 1021.5 98.3 1021.5 96.4 1108.5 98.2 1108.5 100.1"/>
      <polygon class="st32" points="1108.5 102 1021.5 100.1 1021.5 98.3 1108.5 100.1 1108.5 102"/>
      <polygon class="st32" points="1108.5 103.8 1021.5 102 1021.5 100.1 1108.5 102 1108.5 103.8"/>
      <polygon class="st32" points="1108.5 105.7 1021.5 103.9 1021.5 102 1108.5 103.8 1108.5 105.7"/>
      <polygon class="st11" points="1108.5 107.6 1021.5 105.8 1021.5 103.9 1108.5 105.7 1108.5 107.6"/>
      <polygon class="st40" points="1108.5 109.5 1021.5 107.7 1021.5 105.8 1108.5 107.6 1108.5 109.5"/>
      <polygon class="st25" points="1108.5 111.4 1021.5 109.6 1021.5 107.7 1108.5 109.5 1108.5 111.4"/>
      <polygon class="st37" points="1108.5 113.3 1021.5 111.5 1021.5 109.6 1108.5 111.4 1108.5 113.3"/>
      <polygon class="st23" points="1108.5 115.2 1021.5 113.4 1021.5 111.5 1108.5 113.3 1108.5 115.2"/>
      <polygon class="st35" points="1108.5 117.1 1021.5 115.3 1021.5 113.4 1108.5 115.2 1108.5 117.1"/>
      <polygon class="st2" points="1108.5 119 1021.5 117.2 1021.5 115.3 1108.5 117.1 1108.5 119"/>
      <polygon class="st31" points="1108.5 120.9 1021.5 119.1 1021.5 117.2 1108.5 119 1108.5 120.9"/>
      <polygon class="st27" points="1108.5 122.8 1021.5 121 1021.5 119.1 1108.5 120.9 1108.5 122.8"/>
      <polygon class="st13" points="1108.5 124.7 1021.5 122.8 1021.5 121 1108.5 122.8 1108.5 124.7"/>
      <polygon class="st18" points="1108.5 126.6 1021.5 124.7 1021.5 122.8 1108.5 124.7 1108.5 126.6"/>
      <polygon class="st34" points="1102.9 128.4 1021.5 126.6 1021.5 124.7 1108.5 126.6 1108.5 128.4 1102.9 128.4"/>
      <polygon class="st1" points="1021.5 126.6 1102.9 128.4 1021.5 128.4 1021.5 126.6"/>
    </g>
    <path class="st14" d="M1231.5,36.3c-3.8-3.8-9.9-3.9-14-.3-31.4,28.3-60,71.1-94.2,98.6-2.7,2.2-6,4.4-9.9,6.6l-35.3,104.4c4.1,3.6,6.7,8.9,6.7,14.8,0,11-8.9,19.8-19.8,19.8s-19.8-8.9-19.8-19.8,2.6-11.1,6.7-14.8l-35.5-105.1c-3.3-1.9-6.2-4-8.6-5.9-34.3-27.5-62.8-70.2-94.3-98.6-1.9-1.8-4.4-2.7-6.9-2.7s-5.1,1-7.1,2.9c-3.3,3.3-3.9,8.4-1.5,12.4,32.7,53.5,117.8,141.4,118.3,308.9,0,1.1,21.5,1.6,43.1,1.6h12.3c21.6,0,43.1-.6,43.1-1.6.5-167.6,85.6-255.5,118.3-308.9,1-1.6,1.5-3.4,1.5-5.2,0-2.6-1-5.2-3-7.1Z"/>
  </g>
</svg>